<?xml version="1.0" encoding="UTF-8"?>
<svg width="48" height="48" viewBox="0 0 48 48" fill="none" xmlns="http://www.w3.org/2000/svg">
  <circle cx="24" cy="24" r="20" fill="#FFD700"/>
  <path d="M24 10C16.268 10 10 16.268 10 24C10 31.732 16.268 38 24 38C31.732 38 38 31.732 38 24C38 16.268 31.732 10 24 10ZM24 14C26.2091 14 28 15.7909 28 18C28 20.2091 26.2091 22 24 22C21.7909 22 20 20.2091 20 18C20 15.7909 21.7909 14 24 14ZM24 34C20.6667 34 17.7333 32.4 16 29.8C16.0667 26.9333 19.7333 25.2 24 25.2C28.2667 25.2 31.9333 26.9333 32 29.8C30.2667 32.4 27.3333 34 24 34Z" fill="#333333"/>
</svg> 